<mxfile host="app.diagrams.net" agent="Mozilla/5.0 (Windows NT 10.0; Win64; x64) AppleWebKit/537.36 (KHTML, like Gecko) Chrome/132.0.0.0 Safari/537.36 Edg/132.0.0.0" version="26.0.10">
  <diagram id="R2lEEEUBdFMjLlhIrx00" name="Page-1">
    <mxGraphModel dx="1050" dy="569" grid="1" gridSize="10" guides="1" tooltips="1" connect="1" arrows="1" fold="1" page="1" pageScale="1" pageWidth="850" pageHeight="1100" math="0" shadow="0" extFonts="Permanent Marker^https://fonts.googleapis.com/css?family=Permanent+Marker">
      <root>
        <mxCell id="0" />
        <mxCell id="1" parent="0" />
        <mxCell id="eknXZn4eCGAgqwJ2ALEV-1" value="student" style="rounded=0;whiteSpace=wrap;html=1;" vertex="1" parent="1">
          <mxGeometry x="160" y="180" width="120" height="60" as="geometry" />
        </mxCell>
        <mxCell id="eknXZn4eCGAgqwJ2ALEV-2" value="borrowing" style="rounded=0;whiteSpace=wrap;html=1;" vertex="1" parent="1">
          <mxGeometry x="640" y="180" width="120" height="60" as="geometry" />
        </mxCell>
        <mxCell id="eknXZn4eCGAgqwJ2ALEV-3" value="admin&amp;nbsp;" style="rounded=0;whiteSpace=wrap;html=1;" vertex="1" parent="1">
          <mxGeometry x="160" y="440" width="120" height="60" as="geometry" />
        </mxCell>
        <mxCell id="eknXZn4eCGAgqwJ2ALEV-4" value="librarian" style="rounded=0;whiteSpace=wrap;html=1;" vertex="1" parent="1">
          <mxGeometry x="600" y="450" width="120" height="60" as="geometry" />
        </mxCell>
        <mxCell id="eknXZn4eCGAgqwJ2ALEV-34" style="edgeStyle=orthogonalEdgeStyle;rounded=0;orthogonalLoop=1;jettySize=auto;html=1;entryX=0.5;entryY=0;entryDx=0;entryDy=0;" edge="1" parent="1" source="eknXZn4eCGAgqwJ2ALEV-5" target="eknXZn4eCGAgqwJ2ALEV-1">
          <mxGeometry relative="1" as="geometry" />
        </mxCell>
        <mxCell id="eknXZn4eCGAgqwJ2ALEV-5" value="name" style="ellipse;whiteSpace=wrap;html=1;" vertex="1" parent="1">
          <mxGeometry x="90" y="60" width="120" height="40" as="geometry" />
        </mxCell>
        <mxCell id="eknXZn4eCGAgqwJ2ALEV-35" value="" style="edgeStyle=orthogonalEdgeStyle;rounded=0;orthogonalLoop=1;jettySize=auto;html=1;" edge="1" parent="1" source="eknXZn4eCGAgqwJ2ALEV-7" target="eknXZn4eCGAgqwJ2ALEV-1">
          <mxGeometry relative="1" as="geometry">
            <Array as="points">
              <mxPoint x="320" y="160" />
              <mxPoint x="240" y="160" />
            </Array>
          </mxGeometry>
        </mxCell>
        <mxCell id="eknXZn4eCGAgqwJ2ALEV-7" value="email" style="ellipse;whiteSpace=wrap;html=1;" vertex="1" parent="1">
          <mxGeometry x="260" y="80" width="120" height="40" as="geometry" />
        </mxCell>
        <mxCell id="eknXZn4eCGAgqwJ2ALEV-8" value="id" style="ellipse;whiteSpace=wrap;html=1;" vertex="1" parent="1">
          <mxGeometry x="20" y="130" width="120" height="40" as="geometry" />
        </mxCell>
        <mxCell id="eknXZn4eCGAgqwJ2ALEV-9" value="id" style="ellipse;whiteSpace=wrap;html=1;" vertex="1" parent="1">
          <mxGeometry x="80" y="600" width="120" height="40" as="geometry" />
        </mxCell>
        <mxCell id="eknXZn4eCGAgqwJ2ALEV-52" style="edgeStyle=orthogonalEdgeStyle;rounded=0;orthogonalLoop=1;jettySize=auto;html=1;entryX=0.5;entryY=1;entryDx=0;entryDy=0;" edge="1" parent="1" source="eknXZn4eCGAgqwJ2ALEV-10" target="eknXZn4eCGAgqwJ2ALEV-3">
          <mxGeometry relative="1" as="geometry" />
        </mxCell>
        <mxCell id="eknXZn4eCGAgqwJ2ALEV-10" value="name" style="ellipse;whiteSpace=wrap;html=1;" vertex="1" parent="1">
          <mxGeometry x="180" y="650" width="120" height="40" as="geometry" />
        </mxCell>
        <mxCell id="eknXZn4eCGAgqwJ2ALEV-53" style="edgeStyle=orthogonalEdgeStyle;rounded=0;orthogonalLoop=1;jettySize=auto;html=1;entryX=1;entryY=1;entryDx=0;entryDy=0;" edge="1" parent="1" source="eknXZn4eCGAgqwJ2ALEV-11" target="eknXZn4eCGAgqwJ2ALEV-3">
          <mxGeometry relative="1" as="geometry" />
        </mxCell>
        <mxCell id="eknXZn4eCGAgqwJ2ALEV-11" value="email" style="ellipse;whiteSpace=wrap;html=1;" vertex="1" parent="1">
          <mxGeometry x="310" y="600" width="120" height="40" as="geometry" />
        </mxCell>
        <mxCell id="eknXZn4eCGAgqwJ2ALEV-50" style="edgeStyle=orthogonalEdgeStyle;rounded=0;orthogonalLoop=1;jettySize=auto;html=1;entryX=0;entryY=0.5;entryDx=0;entryDy=0;" edge="1" parent="1" source="eknXZn4eCGAgqwJ2ALEV-12" target="eknXZn4eCGAgqwJ2ALEV-3">
          <mxGeometry relative="1" as="geometry" />
        </mxCell>
        <mxCell id="eknXZn4eCGAgqwJ2ALEV-12" value="password" style="ellipse;whiteSpace=wrap;html=1;" vertex="1" parent="1">
          <mxGeometry x="10" y="470" width="120" height="40" as="geometry" />
        </mxCell>
        <mxCell id="eknXZn4eCGAgqwJ2ALEV-47" style="edgeStyle=orthogonalEdgeStyle;rounded=0;orthogonalLoop=1;jettySize=auto;html=1;entryX=0.25;entryY=1;entryDx=0;entryDy=0;" edge="1" parent="1" source="eknXZn4eCGAgqwJ2ALEV-13" target="eknXZn4eCGAgqwJ2ALEV-4">
          <mxGeometry relative="1" as="geometry" />
        </mxCell>
        <mxCell id="eknXZn4eCGAgqwJ2ALEV-13" value="phone" style="ellipse;whiteSpace=wrap;html=1;" vertex="1" parent="1">
          <mxGeometry x="500" y="660" width="120" height="40" as="geometry" />
        </mxCell>
        <mxCell id="eknXZn4eCGAgqwJ2ALEV-14" value="name" style="ellipse;whiteSpace=wrap;html=1;" vertex="1" parent="1">
          <mxGeometry x="640" y="640" width="120" height="40" as="geometry" />
        </mxCell>
        <mxCell id="eknXZn4eCGAgqwJ2ALEV-42" style="edgeStyle=orthogonalEdgeStyle;rounded=0;orthogonalLoop=1;jettySize=auto;html=1;entryX=1;entryY=1;entryDx=0;entryDy=0;" edge="1" parent="1" source="eknXZn4eCGAgqwJ2ALEV-15" target="eknXZn4eCGAgqwJ2ALEV-4">
          <mxGeometry relative="1" as="geometry" />
        </mxCell>
        <mxCell id="eknXZn4eCGAgqwJ2ALEV-15" value="id" style="ellipse;whiteSpace=wrap;html=1;" vertex="1" parent="1">
          <mxGeometry x="710" y="580" width="120" height="40" as="geometry" />
        </mxCell>
        <mxCell id="eknXZn4eCGAgqwJ2ALEV-37" style="edgeStyle=orthogonalEdgeStyle;rounded=0;orthogonalLoop=1;jettySize=auto;html=1;entryX=0;entryY=0.25;entryDx=0;entryDy=0;" edge="1" parent="1" source="eknXZn4eCGAgqwJ2ALEV-16" target="eknXZn4eCGAgqwJ2ALEV-2">
          <mxGeometry relative="1" as="geometry" />
        </mxCell>
        <mxCell id="eknXZn4eCGAgqwJ2ALEV-16" value="id" style="ellipse;whiteSpace=wrap;html=1;" vertex="1" parent="1">
          <mxGeometry x="480" y="100" width="120" height="40" as="geometry" />
        </mxCell>
        <mxCell id="eknXZn4eCGAgqwJ2ALEV-17" value="name" style="ellipse;whiteSpace=wrap;html=1;" vertex="1" parent="1">
          <mxGeometry x="480" y="30" width="120" height="40" as="geometry" />
        </mxCell>
        <mxCell id="eknXZn4eCGAgqwJ2ALEV-39" style="edgeStyle=orthogonalEdgeStyle;rounded=0;orthogonalLoop=1;jettySize=auto;html=1;entryX=0.5;entryY=0;entryDx=0;entryDy=0;" edge="1" parent="1" source="eknXZn4eCGAgqwJ2ALEV-18" target="eknXZn4eCGAgqwJ2ALEV-2">
          <mxGeometry relative="1" as="geometry" />
        </mxCell>
        <mxCell id="eknXZn4eCGAgqwJ2ALEV-18" value="email" style="ellipse;whiteSpace=wrap;html=1;" vertex="1" parent="1">
          <mxGeometry x="660" y="30" width="120" height="40" as="geometry" />
        </mxCell>
        <mxCell id="eknXZn4eCGAgqwJ2ALEV-40" style="edgeStyle=orthogonalEdgeStyle;rounded=0;orthogonalLoop=1;jettySize=auto;html=1;entryX=1;entryY=0.5;entryDx=0;entryDy=0;" edge="1" parent="1" source="eknXZn4eCGAgqwJ2ALEV-19" target="eknXZn4eCGAgqwJ2ALEV-2">
          <mxGeometry relative="1" as="geometry" />
        </mxCell>
        <mxCell id="eknXZn4eCGAgqwJ2ALEV-19" value="phone" style="ellipse;whiteSpace=wrap;html=1;" vertex="1" parent="1">
          <mxGeometry x="730" y="110" width="120" height="40" as="geometry" />
        </mxCell>
        <mxCell id="eknXZn4eCGAgqwJ2ALEV-26" style="edgeStyle=orthogonalEdgeStyle;rounded=0;orthogonalLoop=1;jettySize=auto;html=1;entryX=0.5;entryY=0;entryDx=0;entryDy=0;" edge="1" parent="1" source="eknXZn4eCGAgqwJ2ALEV-20" target="eknXZn4eCGAgqwJ2ALEV-3">
          <mxGeometry relative="1" as="geometry" />
        </mxCell>
        <mxCell id="eknXZn4eCGAgqwJ2ALEV-27" style="edgeStyle=orthogonalEdgeStyle;rounded=0;orthogonalLoop=1;jettySize=auto;html=1;entryX=0.5;entryY=1;entryDx=0;entryDy=0;" edge="1" parent="1" source="eknXZn4eCGAgqwJ2ALEV-20" target="eknXZn4eCGAgqwJ2ALEV-1">
          <mxGeometry relative="1" as="geometry" />
        </mxCell>
        <mxCell id="eknXZn4eCGAgqwJ2ALEV-20" value="access&amp;nbsp;" style="rhombus;whiteSpace=wrap;html=1;" vertex="1" parent="1">
          <mxGeometry x="180" y="300" width="80" height="80" as="geometry" />
        </mxCell>
        <mxCell id="eknXZn4eCGAgqwJ2ALEV-29" value="" style="edgeStyle=orthogonalEdgeStyle;rounded=0;orthogonalLoop=1;jettySize=auto;html=1;entryX=1;entryY=0.25;entryDx=0;entryDy=0;" edge="1" parent="1" source="eknXZn4eCGAgqwJ2ALEV-21" target="eknXZn4eCGAgqwJ2ALEV-3">
          <mxGeometry relative="1" as="geometry" />
        </mxCell>
        <mxCell id="eknXZn4eCGAgqwJ2ALEV-30" style="edgeStyle=orthogonalEdgeStyle;rounded=0;orthogonalLoop=1;jettySize=auto;html=1;entryX=0;entryY=0.75;entryDx=0;entryDy=0;" edge="1" parent="1" source="eknXZn4eCGAgqwJ2ALEV-21" target="eknXZn4eCGAgqwJ2ALEV-2">
          <mxGeometry relative="1" as="geometry" />
        </mxCell>
        <mxCell id="eknXZn4eCGAgqwJ2ALEV-21" value="access&amp;nbsp;" style="rhombus;whiteSpace=wrap;html=1;rotation=-30;" vertex="1" parent="1">
          <mxGeometry x="360" y="310" width="80" height="80" as="geometry" />
        </mxCell>
        <mxCell id="eknXZn4eCGAgqwJ2ALEV-31" value="" style="edgeStyle=orthogonalEdgeStyle;rounded=0;orthogonalLoop=1;jettySize=auto;html=1;" edge="1" parent="1" source="eknXZn4eCGAgqwJ2ALEV-22" target="eknXZn4eCGAgqwJ2ALEV-3">
          <mxGeometry relative="1" as="geometry" />
        </mxCell>
        <mxCell id="eknXZn4eCGAgqwJ2ALEV-22" value="access" style="rhombus;whiteSpace=wrap;html=1;rotation=0;" vertex="1" parent="1">
          <mxGeometry x="380" y="430" width="80" height="80" as="geometry" />
        </mxCell>
        <mxCell id="eknXZn4eCGAgqwJ2ALEV-32" style="edgeStyle=orthogonalEdgeStyle;rounded=0;orthogonalLoop=1;jettySize=auto;html=1;entryX=-0.017;entryY=0.623;entryDx=0;entryDy=0;entryPerimeter=0;" edge="1" parent="1" source="eknXZn4eCGAgqwJ2ALEV-22" target="eknXZn4eCGAgqwJ2ALEV-4">
          <mxGeometry relative="1" as="geometry" />
        </mxCell>
        <mxCell id="eknXZn4eCGAgqwJ2ALEV-33" style="edgeStyle=orthogonalEdgeStyle;rounded=0;orthogonalLoop=1;jettySize=auto;html=1;entryX=0.07;entryY=-0.037;entryDx=0;entryDy=0;entryPerimeter=0;" edge="1" parent="1" source="eknXZn4eCGAgqwJ2ALEV-8" target="eknXZn4eCGAgqwJ2ALEV-1">
          <mxGeometry relative="1" as="geometry" />
        </mxCell>
        <mxCell id="eknXZn4eCGAgqwJ2ALEV-38" style="edgeStyle=orthogonalEdgeStyle;rounded=0;orthogonalLoop=1;jettySize=auto;html=1;entryX=0.177;entryY=-0.037;entryDx=0;entryDy=0;entryPerimeter=0;" edge="1" parent="1" source="eknXZn4eCGAgqwJ2ALEV-17" target="eknXZn4eCGAgqwJ2ALEV-2">
          <mxGeometry relative="1" as="geometry">
            <Array as="points">
              <mxPoint x="650" y="60" />
              <mxPoint x="650" y="178" />
            </Array>
          </mxGeometry>
        </mxCell>
        <mxCell id="eknXZn4eCGAgqwJ2ALEV-45" style="edgeStyle=orthogonalEdgeStyle;rounded=0;orthogonalLoop=1;jettySize=auto;html=1;exitX=0.5;exitY=1;exitDx=0;exitDy=0;entryX=0.5;entryY=0.75;entryDx=0;entryDy=0;entryPerimeter=0;" edge="1" parent="1" source="eknXZn4eCGAgqwJ2ALEV-14" target="eknXZn4eCGAgqwJ2ALEV-14">
          <mxGeometry relative="1" as="geometry" />
        </mxCell>
        <mxCell id="eknXZn4eCGAgqwJ2ALEV-46" style="edgeStyle=orthogonalEdgeStyle;rounded=0;orthogonalLoop=1;jettySize=auto;html=1;entryX=0.57;entryY=1.063;entryDx=0;entryDy=0;entryPerimeter=0;" edge="1" parent="1" source="eknXZn4eCGAgqwJ2ALEV-14" target="eknXZn4eCGAgqwJ2ALEV-4">
          <mxGeometry relative="1" as="geometry" />
        </mxCell>
        <mxCell id="eknXZn4eCGAgqwJ2ALEV-51" style="edgeStyle=orthogonalEdgeStyle;rounded=0;orthogonalLoop=1;jettySize=auto;html=1;entryX=0.083;entryY=1;entryDx=0;entryDy=0;entryPerimeter=0;" edge="1" parent="1" source="eknXZn4eCGAgqwJ2ALEV-9" target="eknXZn4eCGAgqwJ2ALEV-3">
          <mxGeometry relative="1" as="geometry" />
        </mxCell>
        <mxCell id="eknXZn4eCGAgqwJ2ALEV-54" value="1" style="text;html=1;align=center;verticalAlign=middle;whiteSpace=wrap;rounded=0;" vertex="1" parent="1">
          <mxGeometry x="160" y="390" width="60" height="30" as="geometry" />
        </mxCell>
        <mxCell id="eknXZn4eCGAgqwJ2ALEV-55" value="1" style="text;html=1;align=center;verticalAlign=middle;whiteSpace=wrap;rounded=0;" vertex="1" parent="1">
          <mxGeometry x="270" y="390" width="60" height="30" as="geometry" />
        </mxCell>
        <mxCell id="eknXZn4eCGAgqwJ2ALEV-56" value="1" style="text;html=1;align=center;verticalAlign=middle;whiteSpace=wrap;rounded=0;" vertex="1" parent="1">
          <mxGeometry x="320" y="440" width="60" height="30" as="geometry" />
        </mxCell>
        <mxCell id="eknXZn4eCGAgqwJ2ALEV-57" value="M" style="text;html=1;align=center;verticalAlign=middle;whiteSpace=wrap;rounded=0;" vertex="1" parent="1">
          <mxGeometry x="170" y="260" width="60" height="30" as="geometry" />
        </mxCell>
        <mxCell id="eknXZn4eCGAgqwJ2ALEV-58" value="M" style="text;html=1;align=center;verticalAlign=middle;whiteSpace=wrap;rounded=0;" vertex="1" parent="1">
          <mxGeometry x="470" y="320" width="60" height="30" as="geometry" />
        </mxCell>
        <mxCell id="eknXZn4eCGAgqwJ2ALEV-59" value="M" style="text;html=1;align=center;verticalAlign=middle;whiteSpace=wrap;rounded=0;" vertex="1" parent="1">
          <mxGeometry x="490" y="430" width="60" height="30" as="geometry" />
        </mxCell>
        <mxCell id="eknXZn4eCGAgqwJ2ALEV-60" value="&lt;font style=&quot;font-size: 48px;&quot;&gt;SYSTEM ER&lt;/font&gt;" style="text;html=1;align=center;verticalAlign=middle;whiteSpace=wrap;rounded=0;" vertex="1" parent="1">
          <mxGeometry x="280" y="780" width="260" height="30" as="geometry" />
        </mxCell>
      </root>
    </mxGraphModel>
  </diagram>
</mxfile>
